<?xml version="1.0" encoding="UTF-8" standalone="no"?><!-- Generator: Gravit.io --><svg xmlns="http://www.w3.org/2000/svg" xmlns:xlink="http://www.w3.org/1999/xlink" style="isolation:isolate" viewBox="0 0 320 320" width="320pt" height="320pt"><defs><clipPath id="_clipPath_HwaaI8ixhdZ8Ssn4wADT1bZWW15QW6w4"><rect width="320" height="320"/></clipPath></defs><g clip-path="url(#_clipPath_HwaaI8ixhdZ8Ssn4wADT1bZWW15QW6w4)"><path d=" M 263.254 169.761 L 154.209 276.807 L 45.164 169.761 L 45.164 169.761 C 15.073 140.221 15.073 92.256 45.164 62.716 C 75.256 33.175 124.118 33.175 154.209 62.716 L 154.209 62.716 C 184.301 33.175 233.163 33.175 263.254 62.716 C 293.346 92.256 293.346 140.221 263.254 169.761 L 263.254 169.761 Z " fill-rule="evenodd" fill="rgb(255,155,227)"/><g><ellipse vector-effect="non-scaling-stroke" cx="214.28381697373692" cy="204.90382603377662" rx="53.961676914326176" ry="56.10040191397941" fill="rgb(236,153,153)" stroke-width="20" stroke="rgb(255,82,82)" stroke-linejoin="miter" stroke-linecap="square" stroke-miterlimit="3"/><path d=" M 160.752 130.462 C 153.346 102.647 169.914 74.052 197.728 66.646 C 225.542 59.239 254.137 75.807 261.544 103.622 C 268.95 131.436 252.382 160.031 224.568 167.437 C 196.754 174.844 168.159 158.276 160.752 130.462 Z " fill="rgb(255,203,203)" vector-effect="non-scaling-stroke" stroke-width="20" stroke="rgb(255,82,82)" stroke-linejoin="miter" stroke-linecap="square" stroke-miterlimit="3"/><path d=" M 166.144 130.083 Q 178.756 129.721 180.415 133.129 L 199.617 174.052 Q 171.799 162.511 166.596 154.919 C 161.394 147.328 153.533 130.445 166.144 130.083 Z " fill="rgb(255,235,235)" vector-effect="non-scaling-stroke" stroke-width="20" stroke="rgb(255,82,82)" stroke-linejoin="miter" stroke-linecap="square" stroke-miterlimit="3"/><path d=" M 213.554 167.481 C 229.092 149.854 260.73 152.312 284.161 172.966 C 307.593 193.62 314.001 224.699 298.464 242.327 C 282.926 259.954 251.288 257.496 227.856 236.842 C 204.425 216.188 198.016 185.108 213.554 167.481 Z " fill="rgb(255,166,166)" vector-effect="non-scaling-stroke" stroke-width="20" stroke="rgb(255,82,82)" stroke-linejoin="miter" stroke-linecap="square" stroke-miterlimit="3"/><path d=" M 191.673 116.654 C 191.31 115.875 195.708 113.055 201.488 110.36 C 207.267 107.665 212.255 106.109 212.618 106.888 C 212.981 107.667 208.583 110.487 202.803 113.182 C 197.024 115.877 192.036 117.432 191.673 116.654 Z " fill="rgb(255,255,255)" vector-effect="non-scaling-stroke" stroke-width="20" stroke="rgb(255,82,82)" stroke-linejoin="miter" stroke-linecap="square" stroke-miterlimit="3"/></g><g><ellipse vector-effect="non-scaling-stroke" cx="95.50232083915307" cy="205.23286064910795" rx="59.22623075962623" ry="67.61661345057328" fill="rgb(154,172,232)" stroke-width="20" stroke="rgb(67,111,255)" stroke-linejoin="miter" stroke-linecap="square" stroke-miterlimit="3"/><circle vector-effect="non-scaling-stroke" cx="100.05590341076766" cy="118.20320489399049" r="56.59395383697621" fill="rgb(212,222,255)" stroke-width="20" stroke="rgb(67,111,255)" stroke-linejoin="miter" stroke-linecap="square" stroke-miterlimit="3"/><path d=" M 95.271 232.398 C 106.04 200.084 97.4 168.057 75.991 160.922 C 54.581 153.787 28.456 174.23 17.688 206.543 C 6.919 238.857 15.559 270.884 36.968 278.019 C 58.378 285.154 84.503 264.712 95.271 232.398 Z " fill="rgb(166,187,255)" vector-effect="non-scaling-stroke" stroke-width="20" stroke="rgb(67,111,255)" stroke-linejoin="miter" stroke-linecap="square" stroke-miterlimit="3"/><path d=" M 150.509 121.975 Q 136.141 123.999 135.002 127.915 L 122.154 174.797 Q 151.162 157.3 155.404 148.29 C 159.645 139.28 164.877 119.951 150.509 121.975 Z " fill="rgb(236,240,255)" vector-effect="non-scaling-stroke" stroke-width="20" stroke="rgb(67,111,255)" stroke-linejoin="miter" stroke-linecap="square" stroke-miterlimit="3"/><path d=" M 97.286 103.212 C 97.595 102.41 102.677 103.621 108.628 105.915 C 114.578 108.208 119.158 110.721 118.849 111.523 C 118.54 112.325 113.458 111.114 107.508 108.82 C 101.557 106.526 96.977 104.013 97.286 103.212 Z " fill="rgb(255,255,255)" vector-effect="non-scaling-stroke" stroke-width="20" stroke="rgb(67,111,255)" stroke-linejoin="miter" stroke-linecap="square" stroke-miterlimit="3"/></g></g></svg>