<?xml version="1.0" encoding="UTF-8" standalone="no"?><!-- Generator: Gravit.io --><svg xmlns="http://www.w3.org/2000/svg" xmlns:xlink="http://www.w3.org/1999/xlink" style="isolation:isolate" viewBox="0 0 320 250" width="320pt" height="250pt"><defs><clipPath id="_clipPath_wvNt924hkheJeNak273dhuNxJWo67gvU"><rect width="320" height="250"/></clipPath></defs><g clip-path="url(#_clipPath_wvNt924hkheJeNak273dhuNxJWo67gvU)"><path d=" M 263.254 129.201 L 154.209 236.247 L 45.164 129.201 L 45.164 129.201 C 15.073 99.661 15.073 51.695 45.164 22.155 C 75.256 -7.385 124.118 -7.385 154.209 22.155 L 154.209 22.155 C 184.301 -7.385 233.163 -7.385 263.254 22.155 C 293.346 51.695 293.346 99.661 263.254 129.201 L 263.254 129.201 Z " fill-rule="evenodd" fill="rgb(255,155,227)"/><g><ellipse vector-effect="non-scaling-stroke" cx="214.28381697373706" cy="164.3433913990229" rx="53.96167691432615" ry="56.100401913979425" fill="rgb(236,153,153)" stroke-width="20" stroke="rgb(255,82,82)" stroke-linejoin="miter" stroke-linecap="square" stroke-miterlimit="3"/><path d=" M 160.752 89.901 C 153.346 62.087 169.914 33.492 197.728 26.085 C 225.542 18.679 254.137 35.247 261.544 63.061 C 268.95 90.875 252.382 119.47 224.568 126.877 C 196.754 134.284 168.159 117.715 160.752 89.901 Z " fill="rgb(255,203,203)" vector-effect="non-scaling-stroke" stroke-width="20" stroke="rgb(255,82,82)" stroke-linejoin="miter" stroke-linecap="square" stroke-miterlimit="3"/><path d=" M 166.144 89.523 Q 178.756 89.161 180.415 92.569 L 199.617 133.492 Q 171.799 121.95 166.596 114.359 C 161.394 106.767 153.533 89.885 166.144 89.523 Z " fill="rgb(255,235,235)" vector-effect="non-scaling-stroke" stroke-width="20" stroke="rgb(255,82,82)" stroke-linejoin="miter" stroke-linecap="square" stroke-miterlimit="3"/><path d=" M 213.554 126.921 C 229.092 109.294 260.73 111.751 284.161 132.405 C 307.593 153.059 314.001 184.139 298.464 201.766 C 282.926 219.393 251.288 216.936 227.856 196.281 C 204.425 175.627 198.016 144.548 213.554 126.921 Z " fill="rgb(255,166,166)" vector-effect="non-scaling-stroke" stroke-width="20" stroke="rgb(255,82,82)" stroke-linejoin="miter" stroke-linecap="square" stroke-miterlimit="3"/><path d=" M 191.673 76.093 C 191.31 75.314 195.708 72.494 201.488 69.799 C 207.267 67.104 212.255 65.549 212.618 66.327 C 212.981 67.106 208.583 69.926 202.803 72.621 C 197.024 75.316 192.036 76.872 191.673 76.093 Z " fill="rgb(255,255,255)" vector-effect="non-scaling-stroke" stroke-width="20" stroke="rgb(255,82,82)" stroke-linejoin="miter" stroke-linecap="square" stroke-miterlimit="3"/></g><g><ellipse vector-effect="non-scaling-stroke" cx="95.50232083915319" cy="164.67242601435402" rx="59.22623075962623" ry="67.61661345057328" fill="rgb(154,172,232)" stroke-width="20" stroke="rgb(67,111,255)" stroke-linejoin="miter" stroke-linecap="square" stroke-miterlimit="3"/><circle vector-effect="non-scaling-stroke" cx="100.0559034107678" cy="77.64277025923678" r="56.59395383697621" fill="rgb(212,222,255)" stroke-width="20" stroke="rgb(67,111,255)" stroke-linejoin="miter" stroke-linecap="square" stroke-miterlimit="3"/><path d=" M 95.271 191.837 C 106.04 159.524 97.4 127.496 75.991 120.362 C 54.581 113.227 28.456 133.669 17.688 165.983 C 6.919 198.297 15.559 230.324 36.968 237.459 C 58.378 244.593 84.503 224.151 95.271 191.837 Z " fill="rgb(166,187,255)" vector-effect="non-scaling-stroke" stroke-width="20" stroke="rgb(67,111,255)" stroke-linejoin="miter" stroke-linecap="square" stroke-miterlimit="3"/><path d=" M 150.509 81.414 Q 136.141 83.439 135.002 87.355 L 122.154 134.237 Q 151.162 116.739 155.404 107.73 C 159.645 98.72 164.877 79.39 150.509 81.414 Z " fill="rgb(236,240,255)" vector-effect="non-scaling-stroke" stroke-width="20" stroke="rgb(67,111,255)" stroke-linejoin="miter" stroke-linecap="square" stroke-miterlimit="3"/><path d=" M 97.286 62.651 C 97.595 61.849 102.677 63.061 108.628 65.354 C 114.578 67.648 119.158 70.161 118.849 70.963 C 118.54 71.765 113.458 70.553 107.508 68.26 C 101.557 65.966 96.977 63.453 97.286 62.651 Z " fill="rgb(255,255,255)" vector-effect="non-scaling-stroke" stroke-width="20" stroke="rgb(67,111,255)" stroke-linejoin="miter" stroke-linecap="square" stroke-miterlimit="3"/></g></g></svg>