<?xml version="1.0" encoding="UTF-8" standalone="no"?><!-- Generator: Gravit.io --><svg xmlns="http://www.w3.org/2000/svg" xmlns:xlink="http://www.w3.org/1999/xlink" style="isolation:isolate" viewBox="0 0 950 950" width="950pt" height="950pt"><defs><clipPath id="_clipPath_4N1hnb4GnMFpiJvY1tEYpQYHFVVnde2d"><rect width="950" height="950"/></clipPath></defs><g clip-path="url(#_clipPath_4N1hnb4GnMFpiJvY1tEYpQYHFVVnde2d)"><path d=" M 788.81 504.667 L 457.401 830 L 125.992 504.667 L 125.992 504.667 C 34.537 414.889 34.537 269.112 125.992 179.334 C 217.447 89.555 365.946 89.555 457.401 179.334 L 457.401 179.334 C 548.856 89.555 697.355 89.555 788.81 179.334 C 880.265 269.112 880.265 414.889 788.81 504.667 L 788.81 504.667 Z " fill-rule="evenodd" fill="rgb(255,155,227)"/><g><ellipse vector-effect="non-scaling-stroke" cx="639.979046107615" cy="611.4714347412031" rx="164" ry="170.5000000000001" fill="rgb(236,153,153)" stroke-width="50" stroke="rgb(255,82,82)" stroke-linejoin="miter" stroke-linecap="square" stroke-miterlimit="3"/><path d=" M 477.286 385.227 C 454.776 300.694 505.13 213.789 589.663 191.279 C 674.196 168.768 761.101 219.123 783.611 303.655 C 806.122 388.188 755.767 475.093 671.235 497.604 C 586.702 520.114 499.796 469.76 477.286 385.227 Z " fill="rgb(255,203,203)" vector-effect="non-scaling-stroke" stroke-width="50" stroke="rgb(255,82,82)" stroke-linejoin="miter" stroke-linecap="square" stroke-miterlimit="3"/><path d=" M 493.674 384.077 Q 532.002 382.977 537.046 393.335 L 595.405 517.707 Q 510.858 482.63 495.048 459.559 C 479.238 436.487 455.346 385.178 493.674 384.077 Z " fill="rgb(255,235,235)" vector-effect="non-scaling-stroke" stroke-width="50" stroke="rgb(255,82,82)" stroke-linejoin="miter" stroke-linecap="square" stroke-miterlimit="3"/><path d=" M 637.76 497.737 C 684.983 444.164 781.137 451.633 852.35 514.405 C 923.563 577.177 943.04 671.634 895.818 725.206 C 848.595 778.779 752.441 771.309 681.228 708.537 C 610.015 645.765 590.538 551.309 637.76 497.737 Z " fill="rgb(255,166,166)" vector-effect="non-scaling-stroke" stroke-width="50" stroke="rgb(255,82,82)" stroke-linejoin="miter" stroke-linecap="square" stroke-miterlimit="3"/><path d=" M 571.261 343.262 C 570.158 340.895 583.523 332.324 601.089 324.133 C 618.655 315.943 633.812 311.215 634.915 313.582 C 636.019 315.949 622.654 324.52 605.088 332.71 C 587.522 340.901 572.365 345.629 571.261 343.262 Z " fill="rgb(255,255,255)" vector-effect="non-scaling-stroke" stroke-width="50" stroke="rgb(255,82,82)" stroke-linejoin="miter" stroke-linecap="square" stroke-miterlimit="3"/></g><g><ellipse vector-effect="non-scaling-stroke" cx="278.9790461076149" cy="612.4714347412036" rx="179.99999999999994" ry="205.5" fill="rgb(154,172,232)" stroke-width="50" stroke="rgb(67,111,255)" stroke-linejoin="miter" stroke-linecap="square" stroke-miterlimit="3"/><circle vector-effect="non-scaling-stroke" cx="292.8182665404871" cy="347.9714347412038" r="172.00000000000006" fill="rgb(212,222,255)" stroke-width="50" stroke="rgb(67,111,255)" stroke-linejoin="miter" stroke-linecap="square" stroke-miterlimit="3"/><path d=" M 278.277 695.031 C 311.005 596.823 284.748 499.487 219.679 477.803 C 154.61 456.119 75.212 518.246 42.485 616.454 C 9.757 714.662 36.014 811.999 101.083 833.683 C 166.152 855.367 245.55 793.239 278.277 695.031 Z " fill="rgb(166,187,255)" vector-effect="non-scaling-stroke" stroke-width="50" stroke="rgb(67,111,255)" stroke-linejoin="miter" stroke-linecap="square" stroke-miterlimit="3"/><path d=" M 446.155 359.434 Q 402.486 365.586 399.027 377.488 L 359.979 519.971 Q 448.141 466.794 461.032 439.411 C 473.923 412.028 489.823 353.282 446.155 359.434 Z " fill="rgb(236,240,255)" vector-effect="non-scaling-stroke" stroke-width="50" stroke="rgb(67,111,255)" stroke-linejoin="miter" stroke-linecap="square" stroke-miterlimit="3"/><path d=" M 284.401 302.409 C 285.34 299.972 300.785 303.653 318.869 310.624 C 336.954 317.595 350.873 325.233 349.934 327.67 C 348.995 330.107 333.55 326.425 315.466 319.455 C 297.381 312.484 283.461 304.846 284.401 302.409 Z " fill="rgb(255,255,255)" vector-effect="non-scaling-stroke" stroke-width="50" stroke="rgb(67,111,255)" stroke-linejoin="miter" stroke-linecap="square" stroke-miterlimit="3"/></g></g></svg>