<?xml version="1.0" encoding="UTF-8" standalone="no"?><!-- Generator: Gravit.io --><svg xmlns="http://www.w3.org/2000/svg" xmlns:xlink="http://www.w3.org/1999/xlink" style="isolation:isolate" viewBox="0 0 280 220" width="280pt" height="220pt"><defs><clipPath id="_clipPath_oLkIfVIYVIBawLpL73srwxt8BIYpvOBw"><rect width="280" height="220"/></clipPath></defs><g clip-path="url(#_clipPath_oLkIfVIYVIBawLpL73srwxt8BIYpvOBw)"><path d=" M 231.636 114.663 L 134.861 209.664 L 38.086 114.663 L 38.086 114.663 C 11.38 88.447 11.38 45.878 38.086 19.662 C 64.792 -6.554 108.155 -6.554 134.861 19.662 L 134.861 19.662 C 161.567 -6.554 204.93 -6.554 231.636 19.662 C 258.342 45.878 258.342 88.447 231.636 114.663 L 231.636 114.663 Z " fill-rule="evenodd" fill="rgb(255,155,227)"/><g><ellipse vector-effect="non-scaling-stroke" cx="188.17569941434488" cy="145.85116276189405" rx="47.889807162534424" ry="49.78787878787887" fill="rgb(236,153,153)" stroke-width="15" stroke="rgb(255,82,82)" stroke-linejoin="miter" stroke-linecap="square" stroke-miterlimit="3"/><path d=" M 140.668 79.785 C 134.094 55.101 148.798 29.723 173.483 23.15 C 198.167 16.577 223.545 31.281 230.118 55.965 C 236.691 80.65 221.987 106.027 197.303 112.601 C 172.618 119.174 147.241 104.47 140.668 79.785 Z " fill="rgb(255,203,203)" vector-effect="non-scaling-stroke" stroke-width="15" stroke="rgb(255,82,82)" stroke-linejoin="miter" stroke-linecap="square" stroke-miterlimit="3"/><path d=" M 145.453 79.45 Q 156.645 79.128 158.118 82.153 L 175.16 118.471 Q 150.471 108.228 145.854 101.491 C 141.238 94.754 134.261 79.771 145.453 79.45 Z " fill="rgb(255,235,235)" vector-effect="non-scaling-stroke" stroke-width="15" stroke="rgb(255,82,82)" stroke-linejoin="miter" stroke-linecap="square" stroke-miterlimit="3"/><path d=" M 187.528 112.639 C 201.317 96.996 229.395 99.177 250.19 117.507 C 270.985 135.837 276.673 163.419 262.883 179.063 C 249.094 194.707 221.016 192.526 200.221 174.196 C 179.426 155.865 173.738 128.283 187.528 112.639 Z " fill="rgb(255,166,166)" vector-effect="non-scaling-stroke" stroke-width="15" stroke="rgb(255,82,82)" stroke-linejoin="miter" stroke-linecap="square" stroke-miterlimit="3"/><path d=" M 168.109 67.531 C 167.787 66.84 171.69 64.337 176.819 61.945 C 181.949 59.554 186.375 58.173 186.697 58.864 C 187.019 59.555 183.117 62.058 177.987 64.45 C 172.858 66.842 168.432 68.222 168.109 67.531 Z " fill="rgb(255,255,255)" vector-effect="non-scaling-stroke" stroke-width="15" stroke="rgb(255,82,82)" stroke-linejoin="miter" stroke-linecap="square" stroke-miterlimit="3"/></g><g><ellipse vector-effect="non-scaling-stroke" cx="82.75972145291246" cy="146.14317378117778" rx="52.56198347107433" ry="60.008264462809876" fill="rgb(154,172,232)" stroke-width="15" stroke="rgb(67,111,255)" stroke-linejoin="miter" stroke-linecap="square" stroke-miterlimit="3"/><circle vector-effect="non-scaling-stroke" cx="86.80092631760789" cy="68.90625918062699" r="50.22589531680438" fill="rgb(212,222,255)" stroke-width="15" stroke="rgb(67,111,255)" stroke-linejoin="miter" stroke-linecap="square" stroke-miterlimit="3"/><path d=" M 82.555 170.252 C 92.112 141.574 84.444 113.15 65.443 106.818 C 46.443 100.486 23.258 118.628 13.701 147.306 C 4.144 175.984 11.811 204.407 30.812 210.739 C 49.813 217.071 72.998 198.929 82.555 170.252 Z " fill="rgb(166,187,255)" vector-effect="non-scaling-stroke" stroke-width="15" stroke="rgb(67,111,255)" stroke-linejoin="miter" stroke-linecap="square" stroke-miterlimit="3"/><path d=" M 131.577 72.253 Q 118.825 74.05 117.815 77.525 L 106.413 119.132 Q 132.157 103.604 135.921 95.608 C 139.685 87.611 144.328 70.457 131.577 72.253 Z " fill="rgb(236,240,255)" vector-effect="non-scaling-stroke" stroke-width="15" stroke="rgb(67,111,255)" stroke-linejoin="miter" stroke-linecap="square" stroke-miterlimit="3"/><path d=" M 84.343 55.602 C 84.617 54.89 89.127 55.965 94.408 58 C 99.689 60.036 103.754 62.266 103.479 62.978 C 103.205 63.69 98.695 62.615 93.414 60.579 C 88.133 58.543 84.069 56.313 84.343 55.602 Z " fill="rgb(255,255,255)" vector-effect="non-scaling-stroke" stroke-width="15" stroke="rgb(67,111,255)" stroke-linejoin="miter" stroke-linecap="square" stroke-miterlimit="3"/></g></g></svg>