<?xml version="1.0" encoding="UTF-8" standalone="no"?><!-- Generator: Gravit.io --><svg xmlns="http://www.w3.org/2000/svg" xmlns:xlink="http://www.w3.org/1999/xlink" style="isolation:isolate" viewBox="0 0 320 256" width="320pt" height="256pt"><defs><clipPath id="_clipPath_NbIq7Lcc3Mb85vAXIwqR1em9kQpJSQ1T"><rect width="320" height="256"/></clipPath></defs><g clip-path="url(#_clipPath_NbIq7Lcc3Mb85vAXIwqR1em9kQpJSQ1T)"><path d=" M 263.254 133.201 L 154.209 240.247 L 45.164 133.201 L 45.164 133.201 C 15.073 103.661 15.073 55.695 45.164 26.155 C 75.256 -3.385 124.118 -3.385 154.209 26.155 L 154.209 26.155 C 184.301 -3.385 233.163 -3.385 263.254 26.155 C 293.346 55.695 293.346 103.661 263.254 133.201 L 263.254 133.201 Z " fill-rule="evenodd" fill="rgb(255,155,227)"/><g><ellipse vector-effect="non-scaling-stroke" cx="214.28381697373698" cy="168.34339139902292" rx="53.961676914326176" ry="56.100401913979425" fill="rgb(236,153,153)" stroke-width="20" stroke="rgb(255,82,82)" stroke-linejoin="miter" stroke-linecap="square" stroke-miterlimit="3"/><path d=" M 160.752 93.901 C 153.346 66.087 169.914 37.492 197.728 30.085 C 225.542 22.679 254.137 39.247 261.544 67.061 C 268.95 94.875 252.382 123.47 224.568 130.877 C 196.754 138.284 168.159 121.715 160.752 93.901 Z " fill="rgb(255,203,203)" vector-effect="non-scaling-stroke" stroke-width="20" stroke="rgb(255,82,82)" stroke-linejoin="miter" stroke-linecap="square" stroke-miterlimit="3"/><path d=" M 166.144 93.523 Q 178.756 93.161 180.415 96.569 L 199.617 137.492 Q 171.799 125.95 166.596 118.359 C 161.394 110.767 153.533 93.885 166.144 93.523 Z " fill="rgb(255,235,235)" vector-effect="non-scaling-stroke" stroke-width="20" stroke="rgb(255,82,82)" stroke-linejoin="miter" stroke-linecap="square" stroke-miterlimit="3"/><path d=" M 213.554 130.921 C 229.092 113.294 260.73 115.751 284.161 136.405 C 307.593 157.059 314.001 188.139 298.464 205.766 C 282.926 223.393 251.288 220.936 227.856 200.281 C 204.425 179.627 198.016 148.548 213.554 130.921 Z " fill="rgb(255,166,166)" vector-effect="non-scaling-stroke" stroke-width="20" stroke="rgb(255,82,82)" stroke-linejoin="miter" stroke-linecap="square" stroke-miterlimit="3"/><path d=" M 191.673 80.093 C 191.31 79.314 195.708 76.494 201.488 73.799 C 207.267 71.104 212.255 69.549 212.618 70.327 C 212.981 71.106 208.583 73.926 202.803 76.621 C 197.024 79.316 192.036 80.872 191.673 80.093 Z " fill="rgb(255,255,255)" vector-effect="non-scaling-stroke" stroke-width="20" stroke="rgb(255,82,82)" stroke-linejoin="miter" stroke-linecap="square" stroke-miterlimit="3"/></g><g><ellipse vector-effect="non-scaling-stroke" cx="95.50232083915313" cy="168.6724260143542" rx="59.22623075962623" ry="67.61661345057331" fill="rgb(154,172,232)" stroke-width="20" stroke="rgb(67,111,255)" stroke-linejoin="miter" stroke-linecap="square" stroke-miterlimit="3"/><circle vector-effect="non-scaling-stroke" cx="100.05590341076771" cy="81.64277025923681" r="56.59395383697621" fill="rgb(212,222,255)" stroke-width="20" stroke="rgb(67,111,255)" stroke-linejoin="miter" stroke-linecap="square" stroke-miterlimit="3"/><path d=" M 95.271 195.837 C 106.04 163.524 97.4 131.496 75.991 124.362 C 54.581 117.227 28.456 137.669 17.688 169.983 C 6.919 202.297 15.559 234.324 36.968 241.459 C 58.378 248.593 84.503 228.151 95.271 195.837 Z " fill="rgb(166,187,255)" vector-effect="non-scaling-stroke" stroke-width="20" stroke="rgb(67,111,255)" stroke-linejoin="miter" stroke-linecap="square" stroke-miterlimit="3"/><path d=" M 150.509 85.414 Q 136.141 87.439 135.002 91.355 L 122.154 138.237 Q 151.162 120.739 155.404 111.73 C 159.645 102.72 164.877 83.39 150.509 85.414 Z " fill="rgb(236,240,255)" vector-effect="non-scaling-stroke" stroke-width="20" stroke="rgb(67,111,255)" stroke-linejoin="miter" stroke-linecap="square" stroke-miterlimit="3"/><path d=" M 97.286 66.651 C 97.595 65.849 102.677 67.061 108.628 69.354 C 114.578 71.648 119.158 74.161 118.849 74.963 C 118.54 75.765 113.458 74.553 107.508 72.26 C 101.557 69.966 96.977 67.453 97.286 66.651 Z " fill="rgb(255,255,255)" vector-effect="non-scaling-stroke" stroke-width="20" stroke="rgb(67,111,255)" stroke-linejoin="miter" stroke-linecap="square" stroke-miterlimit="3"/></g></g></svg>